<?xml version="1.0" encoding="UTF-8" standalone="no"?>
<!-- Created with Inkscape (http://www.inkscape.org/) -->

<svg
   width="130"
   height="130"
   viewBox="0 0 130 130"
   version="1.1"
   id="svg5"
   sodipodi:docname="boolean.svg"
   inkscape:version="1.1.2 (0a00cf5339, 2022-02-04)"
   xmlns:inkscape="http://www.inkscape.org/namespaces/inkscape"
   xmlns:sodipodi="http://sodipodi.sourceforge.net/DTD/sodipodi-0.dtd"
   xmlns="http://www.w3.org/2000/svg"
   xmlns:svg="http://www.w3.org/2000/svg">
  <sodipodi:namedview
     id="namedview7"
     pagecolor="#ffffff"
     bordercolor="#666666"
     borderopacity="1.0"
     inkscape:pageshadow="2"
     inkscape:pageopacity="0.0"
     inkscape:pagecheckerboard="false"
     inkscape:document-units="px"
     showgrid="false"
     inkscape:zoom="2.256989"
     inkscape:cx="113.20392"
     inkscape:cy="92.379716"
     inkscape:window-width="1440"
     inkscape:window-height="832"
     inkscape:window-x="0"
     inkscape:window-y="0"
     inkscape:window-maximized="1"
     inkscape:current-layer="g29256"
     units="px"
     width="130px"
     scale-x="1" />
  <defs
     id="defs2" />
  <g
     inkscape:label="Layer 1"
     inkscape:groupmode="layer"
     id="layer1">
    <path
       id="path31-2-8"
       style="fill:#000000;stroke:none;stroke-width:1.96696;stroke-linecap:round;stroke-linejoin:bevel;stroke-miterlimit:4;stroke-dasharray:none;stroke-opacity:1;paint-order:stroke fill markers"
       d="m 387.73622,231.27507 a 64.999776,64.999816 0 0 0 -43.53156,18.99258 64.999776,64.999816 0 0 0 0,91.92386 64.999776,64.999816 0 0 0 91.92379,0 64.999776,64.999816 0 0 0 0,-91.92386 64.999776,64.999816 0 0 0 -48.39223,-18.99258 z m -26.74504,24.96791 h 5.2162 l 12.9604,34.00662 h -4.78315 l -3.09799,-8.72399 h -15.32925 l -3.09748,8.72399 h -4.85136 z m 2.59673,4.53253 -6.24094,16.92398 h 12.50462 z m 17.97455,18.45671 h 11.75273 c 3.5077,0 6.21093,0.72868 8.10903,2.18643 1.89811,1.45774 2.84686,3.53047 2.84686,6.2182 0,2.08032 -0.48596,3.7356 -1.4578,4.96557 -0.97183,1.22998 -2.39897,1.99694 -4.28189,2.30063 2.26254,0.48592 4.01652,1.50314 5.26168,3.052 1.26033,1.53367 1.89031,3.45485 1.89031,5.76294 0,3.03697 -1.03285,5.38265 -3.09799,7.03779 -2.06514,1.65516 -5.00302,2.48305 -8.81442,2.48305 h -12.20851 z m 4.60074,3.78115 v 10.24947 h 6.8104 c 2.24737,0 3.91775,-0.41746 5.01106,-1.25263 1.10848,-0.85035 1.66294,-2.14103 1.66294,-3.8721 0,-1.71589 -0.55446,-2.99902 -1.66294,-3.84937 -1.09331,-0.85035 -2.76369,-1.27537 -5.01106,-1.27537 z m 0,13.98515 v 12.45915 h 7.37988 c 2.47514,0 4.30464,-0.50861 5.48905,-1.52599 1.19961,-1.03258 1.79989,-2.60425 1.79989,-4.71495 0,-2.12588 -0.60028,-3.69 -1.79989,-4.6922 -1.18441,-1.01739 -3.01391,-1.52601 -5.48905,-1.52601 z m 36.4886,4.59558 c 2.03476,0 3.94839,0.27345 5.74019,0.8201 1.80701,0.53146 3.50004,1.33619 5.07927,2.41432 v 4.85136 c -1.54886,-1.44256 -3.20413,-2.52073 -4.96558,-3.23442 -1.74625,-0.71368 -3.60649,-1.07021 -5.58052,-1.07021 -3.88732,0 -6.86347,1.19197 -8.92862,3.576 -2.06514,2.36884 -3.09748,5.80075 -3.09748,10.29547 0,4.47952 1.03234,7.91093 3.09748,10.29495 2.06515,2.36883 5.0413,3.55326 8.92862,3.55326 1.97403,0 3.83427,-0.35653 5.58052,-1.07022 1.76145,-0.71368 3.41672,-1.79185 4.96558,-3.23442 v 4.8059 c -1.6096,1.09331 -3.31826,1.91313 -5.12526,2.45979 -1.79181,0.54665 -3.6898,0.8201 -5.6942,0.8201 -5.14766,0 -9.202,-1.57167 -12.16305,-4.71494 -2.96104,-3.15845 -4.44157,-7.46307 -4.44157,-12.91442 0,-5.46655 1.48053,-9.77167 4.44157,-12.91495 2.96105,-3.15844 7.01539,-4.73767 12.16305,-4.73767 z" />
    <g
       id="g29256"
       transform="matrix(1.000094,0,0,1.0000947,-210.67861,66.307373)">
      <path
         id="path31-6"
         style="fill:#000000;stroke-width:5.12675;stroke-linecap:round;stroke-linejoin:bevel;paint-order:stroke fill markers"
         d="M 320.92955,-46.58403 230.3759,43.969618 c 25.00573,25.00573 65.54792,25.00572 90.55365,0 25.00572,-25.005723 25.00573,-65.547912 0,-90.553648 z M 288.86277,4.6717551 h 19.54144 v 3.871598 H 293.46352 V 18.564447 h 13.4829 v 3.872115 h -13.4829 v 16.238796 h -4.60075 z" />
      <path
         id="path31"
         style="fill:none;stroke:#000000;stroke-width:1.93766;stroke-linecap:round;stroke-linejoin:bevel;paint-order:stroke fill markers"
         transform="rotate(-45)"
         d="m 259.87141,193.99158 a 64.031166,64.031166 0 0 1 -64.03117,64.03116 64.031166,64.031166 0 0 1 -64.03117,-64.03116 64.031166,64.031166 0 0 1 64.03117,-64.03117 64.031166,64.031166 0 0 1 64.03117,64.03117 z" />
      <path
         d="m 238.28899,-41.290084 h 28.76507 v 3.871783 h -12.07085 v 30.1315841 h -4.62336 V -37.418301 h -12.07086 z"
         id="path29230"
         style="font-size:46.6436px;line-height:1.25;-inkscape-font-specification:sans-serif;stroke-width:0.485871;fill:#000000" />
    </g>
    <path
       id="path31-2"
       style="fill:#000000;fill-opacity:1;stroke:none;stroke-width:1.96696;stroke-linecap:round;stroke-linejoin:bevel;stroke-miterlimit:4;stroke-dasharray:none;stroke-opacity:1;paint-order:stroke fill markers"
       d="m 13.54991,330.49279 a 64.999781,64.99982 0 0 0 -43.531561,18.99258 64.999781,64.99982 0 0 0 0,91.92384 64.999781,64.99982 0 0 0 91.923791,0 64.999781,64.99982 0 0 0 0,-91.92384 64.999781,64.99982 0 0 0 -48.39223,-18.99258 z m -26.839101,24.96585 h 4.60023 v 30.1314 h 7.51579 v 3.87159 h -19.58634 v -3.87159 h 7.5158 v -25.94097 l -8.17622,1.6402 v -4.19095 z m 28.278801,22.3722 c 3.52255,0 6.33154,0.88042 8.42685,2.6417 2.09531,1.76127 3.14295,4.11495 3.14295,7.06052 0,1.39688 -0.26595,2.72506 -0.79737,3.98529 -0.51623,1.24503 -1.46515,2.71778 -2.84684,4.41831 -0.37959,0.44033 -1.58638,1.71614 -3.62096,3.82663 -2.03457,2.09532 -4.90451,5.03324 -8.60926,8.81392 h 16.05633 v 3.87158 H 5.150969 v -3.87158 c 1.74609,-1.80684 4.121911,-4.22901 7.128221,-7.26569 3.0215,-3.05187 4.91986,-5.0177 5.6942,-5.89834 1.4728,-1.65499 2.49726,-3.05219 3.07422,-4.19094 0.59216,-1.15394 0.88832,-2.28519 0.88832,-3.39358 0,-1.80683 -0.63764,-3.27957 -1.91305,-4.41832 -1.26023,-1.13876 -2.90774,-1.70791 -4.94231,-1.70791 -1.44243,0 -2.96806,0.25032 -4.57749,0.75138 -1.594261,0.50105 -3.302731,1.2606 -5.124731,2.27788 v -4.6462 c 1.85237,-0.74399 3.583501,-1.3061 5.192941,-1.68569 1.60944,-0.37959 3.08218,-0.56896 4.41832,-0.56896 z m 28.04625,22.97477 c 3.49219,0 6.25585,0.7968 8.29043,2.39106 2.03458,1.57908 3.05199,3.72019 3.05199,6.42285 0,1.88274 -0.53943,3.47686 -1.61746,4.78263 -1.07802,1.2906 -2.61119,2.18664 -4.60021,2.68769 2.20159,0.47068 3.91709,1.44982 5.14695,2.9378 1.24503,1.48797 1.86757,3.32538 1.86757,5.51179 0,3.35553 -1.1539,5.95145 -3.46179,7.78864 -2.30787,1.8372 -5.58729,2.7559 -9.83863,2.7559 -1.42725,0 -2.89998,-0.14404 -4.41833,-0.43253 -1.50315,-0.2733 -3.05951,-0.69085 -4.66895,-1.25263 v -4.44106 c 1.27541,0.74398 2.67209,1.30558 4.19043,1.68516 1.51834,0.37959 3.10491,0.56948 4.7599,0.56948 2.88485,0 5.07885,-0.56967 6.582,-1.70843 1.51835,-1.13875 2.27738,-2.79331 2.27738,-4.96453 0,-2.00421 -0.70564,-3.56812 -2.1177,-4.69169 -1.39687,-1.13875 -3.34811,-1.70842 -5.85337,-1.70842 h -3.96304 v -3.78064 h 4.14546 c 2.26232,0 3.99294,-0.44776 5.19243,-1.34358 1.19949,-0.91101 1.79937,-2.21703 1.79937,-3.91758 0,-1.74609 -0.62254,-3.08183 -1.86759,-4.00802 -1.22985,-0.94136 -2.99874,-1.4123 -5.30663,-1.4123 -1.26022,0 -2.61158,0.13649 -4.054,0.40979 -1.44242,0.2733 -3.02899,0.6984 -4.7599,1.27536 v -4.09947 c 1.7461,-0.48587 3.3785,-0.85002 4.89685,-1.09295 1.53352,-0.24294 2.97553,-0.36432 4.32684,-0.36432 z" />
  </g>
</svg>
