<?xml version="1.0" encoding="UTF-8" standalone="no"?>
<!-- Created with Inkscape (http://www.inkscape.org/) -->

<svg
   width="130"
   height="130"
   viewBox="0 0 130 130"
   version="1.1"
   id="svg5"
   sodipodi:docname="number.svg"
   inkscape:version="1.1.2 (0a00cf5339, 2022-02-04)"
   xmlns:inkscape="http://www.inkscape.org/namespaces/inkscape"
   xmlns:sodipodi="http://sodipodi.sourceforge.net/DTD/sodipodi-0.dtd"
   xmlns="http://www.w3.org/2000/svg"
   xmlns:svg="http://www.w3.org/2000/svg">
  <sodipodi:namedview
     id="namedview7"
     pagecolor="#ffffff"
     bordercolor="#666666"
     borderopacity="1.0"
     inkscape:pageshadow="2"
     inkscape:pageopacity="0.0"
     inkscape:pagecheckerboard="false"
     inkscape:document-units="px"
     showgrid="false"
     inkscape:zoom="0.67362489"
     inkscape:cx="297.6434"
     inkscape:cy="198.18151"
     inkscape:window-width="1440"
     inkscape:window-height="832"
     inkscape:window-x="0"
     inkscape:window-y="0"
     inkscape:window-maximized="1"
     inkscape:current-layer="layer1"
     units="px"
     width="130px"
     scale-x="1" />
  <defs
     id="defs2" />
  <g
     inkscape:label="Layer 1"
     inkscape:groupmode="layer"
     id="layer1">
    <path
       id="path31-2"
       style="fill:#000000;fill-opacity:1;stroke:none;stroke-width:1.96696;stroke-linecap:round;stroke-linejoin:bevel;stroke-miterlimit:4;stroke-dasharray:none;stroke-opacity:1;paint-order:stroke fill markers"
       d="m 62.569662,0.04545389 a 64.999781,64.99982 0 0 0 -43.53156,18.99258011 64.999781,64.99982 0 0 0 0,91.923836 64.999781,64.99982 0 0 0 91.923788,0 64.999781,64.99982 0 0 0 0,-91.923836 A 64.999781,64.99982 0 0 0 62.569662,0.04545389 Z M 35.730562,25.011304 h 4.60023 v 30.1314 h 7.515789 v 3.87159 H 28.260242 v -3.87159 h 7.5158 v -25.94097 l -8.17622,1.6402 v -4.19095 z m 28.2788,22.3722 c 3.522551,0 6.331541,0.88042 8.426851,2.6417 2.09531,1.76127 3.14295,4.11495 3.14295,7.06052 0,1.39688 -0.26595,2.72506 -0.79737,3.98529 -0.51623,1.24503 -1.46515,2.71778 -2.84684,4.41831 -0.37959,0.44033 -1.58638,1.71614 -3.62096,3.82663 -2.03457,2.09532 -4.904511,5.03324 -8.609261,8.81392 h 16.056331 v 3.87158 H 54.170721 v -3.87158 c 1.74609,-1.80684 4.121911,-4.22901 7.128221,-7.26569 3.0215,-3.05187 4.91986,-5.0177 5.694201,-5.89834 1.4728,-1.65499 2.49726,-3.05219 3.07422,-4.19094 0.59216,-1.15394 0.88832,-2.28519 0.88832,-3.39358 0,-1.80683 -0.63764,-3.27957 -1.91305,-4.41832 -1.26023,-1.13876 -2.907741,-1.70791 -4.942311,-1.70791 -1.44243,0 -2.96806,0.25032 -4.57749,0.75138 -1.594261,0.50105 -3.302731,1.2606 -5.124731,2.27788 v -4.6462 c 1.85237,-0.74399 3.583501,-1.3061 5.192941,-1.68569 1.60944,-0.37959 3.08218,-0.56896 4.41832,-0.56896 z m 28.046251,22.97477 c 3.49219,0 6.25585,0.7968 8.290427,2.39106 2.03458,1.57908 3.05199,3.72019 3.05199,6.42285 0,1.88274 -0.53943,3.47686 -1.61746,4.78263 -1.07802,1.2906 -2.611187,2.18664 -4.600207,2.68769 2.20159,0.47068 3.917087,1.44982 5.146947,2.9378 1.24503,1.48797 1.86757,3.32538 1.86757,5.51179 0,3.35553 -1.1539,5.951446 -3.46179,7.788636 -2.307867,1.8372 -5.587287,2.7559 -9.838627,2.7559 -1.42725,0 -2.89998,-0.14404 -4.41833,-0.43253 -1.50315,-0.2733 -3.05951,-0.69085 -4.66895,-1.25263 v -4.441056 c 1.27541,0.743976 2.67209,1.305576 4.19043,1.685156 1.51834,0.37959 3.10491,0.56948 4.7599,0.56948 2.88485,0 5.07885,-0.56967 6.582,-1.70843 1.51835,-1.138746 2.27738,-2.793306 2.27738,-4.964526 0,-2.00421 -0.70564,-3.56812 -2.1177,-4.69169 -1.39687,-1.13875 -3.34811,-1.70842 -5.85337,-1.70842 h -3.96304 v -3.78064 h 4.14546 c 2.26232,0 3.99294,-0.44776 5.19243,-1.34358 1.19949,-0.91101 1.79937,-2.21703 1.79937,-3.91758 0,-1.74609 -0.62254,-3.08183 -1.86759,-4.00802 -1.22985,-0.94136 -2.99874,-1.4123 -5.30663,-1.4123 -1.26022,0 -2.61158,0.13649 -4.054,0.40979 -1.44242,0.2733 -3.02899,0.6984 -4.7599,1.27536 v -4.09947 c 1.7461,-0.48587 3.3785,-0.85002 4.89685,-1.09295 1.53352,-0.24294 2.97553,-0.36432 4.32684,-0.36432 z" />
  </g>
</svg>
