<?xml version="1.0" encoding="UTF-8" standalone="no"?>
<!-- Created with Inkscape (http://www.inkscape.org/) -->

<svg
   width="130"
   height="130"
   viewBox="0 0 130 130"
   version="1.1"
   id="svg5"
   sodipodi:docname="boolean.svg"
   inkscape:version="1.1.2 (0a00cf5339, 2022-02-04)"
   xmlns:inkscape="http://www.inkscape.org/namespaces/inkscape"
   xmlns:sodipodi="http://sodipodi.sourceforge.net/DTD/sodipodi-0.dtd"
   xmlns="http://www.w3.org/2000/svg"
   xmlns:svg="http://www.w3.org/2000/svg">
  <sodipodi:namedview
     id="namedview7"
     pagecolor="#ffffff"
     bordercolor="#666666"
     borderopacity="1.0"
     inkscape:pageshadow="2"
     inkscape:pageopacity="0.0"
     inkscape:pagecheckerboard="false"
     inkscape:document-units="px"
     showgrid="false"
     inkscape:zoom="0.67362489"
     inkscape:cx="297.6434"
     inkscape:cy="198.18151"
     inkscape:window-width="1440"
     inkscape:window-height="832"
     inkscape:window-x="0"
     inkscape:window-y="0"
     inkscape:window-maximized="1"
     inkscape:current-layer="layer1"
     units="px"
     width="130px"
     scale-x="1" />
  <defs
     id="defs2" />
  <g
     inkscape:label="Layer 1"
     inkscape:groupmode="layer"
     id="layer1">
    <path
       id="path31-2-8"
       style="fill:#000000;stroke:none;stroke-width:1.96696;stroke-linecap:round;stroke-linejoin:bevel;stroke-miterlimit:4;stroke-dasharray:none;stroke-opacity:1;paint-order:stroke fill markers"
       d="m 62.569669,0.0454539 a 64.999776,64.999816 0 0 0 -43.53156,18.9925841 64.999776,64.999816 0 0 0 0,91.923852 64.999776,64.999816 0 0 0 91.923791,0 64.999776,64.999816 0 0 0 0,-91.923852 A 64.999776,64.999816 0 0 0 62.569669,0.0454539 Z M 35.824629,25.013368 h 5.2162 l 12.9604,34.006612 h -4.78315 l -3.09799,-8.72399 h -15.32925 l -3.09748,8.72399 h -4.85136 z m 2.59673,4.532525 -6.24094,16.923982 h 12.50462 z M 56.395909,48.0026 h 11.75273 c 3.5077,0 6.21093,0.72868 8.10903,2.18643 1.89811,1.45774 2.84686,3.53047 2.84686,6.2182 0,2.08032 -0.48596,3.7356 -1.4578,4.96557 -0.97183,1.22998 -2.39897,1.99694 -4.28189,2.30063 2.26254,0.48592 4.01652,1.50314 5.26168,3.052 1.26033,1.53367 1.89031,3.45485 1.89031,5.76294 0,3.03697 -1.03285,5.38265 -3.09799,7.03779 -2.06514,1.65516 -5.00302,2.48305 -8.81442,2.48305 h -12.20851 z m 4.60074,3.78115 v 10.24947 h 6.8104 c 2.24737,0 3.91775,-0.41746 5.01106,-1.25263 1.10848,-0.85035 1.66294,-2.14103 1.66294,-3.8721 0,-1.71589 -0.55446,-2.99902 -1.66294,-3.84937 -1.09331,-0.85035 -2.76369,-1.27537 -5.01106,-1.27537 z m 0,13.98515 v 12.45915 h 7.37988 c 2.47514,0 4.30464,-0.50861 5.48905,-1.52599 1.19961,-1.03258 1.79989,-2.60425 1.79989,-4.71495 0,-2.12588 -0.60028,-3.69 -1.79989,-4.6922 -1.18441,-1.01739 -3.01391,-1.52601 -5.48905,-1.52601 z m 36.4886,4.59558 c 2.03476,0 3.948391,0.27345 5.740191,0.8201 1.80701,0.53146 3.50004,1.33619 5.07927,2.41432 v 4.85136 c -1.54886,-1.44256 -3.20413,-2.52073 -4.96558,-3.23442 -1.74625,-0.71368 -3.606491,-1.07021 -5.580521,-1.07021 -3.88732,0 -6.86347,1.19197 -8.92862,3.576 -2.06514,2.36884 -3.09748,5.80075 -3.09748,10.29547 0,4.47952 1.03234,7.91093 3.09748,10.29495 2.06515,2.36883 5.0413,3.55326 8.92862,3.55326 1.97403,0 3.834271,-0.35653 5.580521,-1.07022 1.76145,-0.71368 3.41672,-1.79185 4.96558,-3.23442 v 4.8059 c -1.6096,1.09331 -3.31826,1.91313 -5.12526,2.45979 -1.79181,0.54665 -3.689801,0.8201 -5.694201,0.8201 -5.14766,0 -9.202,-1.57167 -12.16305,-4.71494 -2.96104,-3.15845 -4.44157,-7.46307 -4.44157,-12.91442 0,-5.46655 1.48053,-9.77167 4.44157,-12.91495 2.96105,-3.15844 7.01539,-4.73767 12.16305,-4.73767 z" />
  </g>
</svg>
